<?xml version="1.0" encoding="iso-8859-1"?>
<!-- Generator: Adobe Illustrator 11 Build 196, SVG Export Plug-In . SVG Version: 6.0.0 Build 78)  -->
<!DOCTYPE svg PUBLIC "-//W3C//DTD SVG 1.0//EN"    "http://www.w3.org/TR/2001/REC-SVG-20010904/DTD/svg10.dtd" [
	<!ENTITY ns_flows "http://ns.adobe.com/Flows/1.0/">
	<!ENTITY ns_svg "http://www.w3.org/2000/svg">
	<!ENTITY ns_xlink "http://www.w3.org/1999/xlink">
]>
<svg  
	 width="120" height="99.517" viewBox="0 0 120 99.517" style="overflow:visible;enable-background:new 0 0 120 99.517"
	 xml:space="preserve">
	<style type="text/css">
	
	</style>
	<g id="Layer_1">
		<g>
			<rect x="0.5" y="2.5" style="fill:#DCDCDC;stroke:#000000;" width="119" height="7.5"/> 
			<g>
				<text transform="matrix(1 0 0 1 2.625 9)"><tspan x="0" y="0" style="font-family:Bitstream Vera Sans; font-size:7.650000;">+</tspan></text>
			</g>
			<g>
				<text transform="matrix(1 0 0 1 11.1289 9)"><tspan x="0" y="0" style="font-family:Bitstream Vera Sans; font-size:7.650000;">+</tspan></text>
			</g>
			<g>
				<text transform="matrix(1 0 0 1 19.6328 9)"><tspan x="0" y="0" style="font-family:Bitstream Vera Sans; font-size:7.650000;">+</tspan></text>
			</g>
			<g>
				<text transform="matrix(1 0 0 1 28.1367 9)"><tspan x="0" y="0" style="font-family:Bitstream Vera Sans; font-size:7.650000;">+</tspan></text>
			</g>
			<g>
				<text transform="matrix(1 0 0 1 36.6406 9)"><tspan x="0" y="0" style="font-family:Bitstream Vera Sans; font-size:7.650000;">+</tspan></text>
			</g>
			<g>
				<text transform="matrix(1 0 0 1 45.1445 9)"><tspan x="0" y="0" style="font-family:Bitstream Vera Sans; font-size:7.650000;">+</tspan></text>
			</g>
			<g>
				<text transform="matrix(1 0 0 1 53.6484 9)"><tspan x="0" y="0" style="font-family:Bitstream Vera Sans; font-size:7.650000;">+</tspan></text>
			</g>
			<g>
				<text transform="matrix(1 0 0 1 62.1528 9)"><tspan x="0" y="0" style="font-family:Bitstream Vera Sans; font-size:7.650000;">+</tspan></text>
			</g>
			<g>
				<text transform="matrix(1 0 0 1 70.6562 9)"><tspan x="0" y="0" style="font-family:Bitstream Vera Sans; font-size:7.650000;">+</tspan></text>
			</g>
			<g>
				<text transform="matrix(1 0 0 1 79.1602 9)"><tspan x="0" y="0" style="font-family:Bitstream Vera Sans; font-size:7.650000;">+</tspan></text>
			</g>
			<g>
				<text transform="matrix(1 0 0 1 87.6646 9)"><tspan x="0" y="0" style="font-family:Bitstream Vera Sans; font-size:7.650000;">+</tspan></text>
			</g>
			<g>
				<text transform="matrix(1 0 0 1 96.1685 9)"><tspan x="0" y="0" style="font-family:Bitstream Vera Sans; font-size:7.650000;">+</tspan></text>
			</g>
			<g>
				<text transform="matrix(1 0 0 1 104.6724 9)"><tspan x="0" y="0" style="font-family:Bitstream Vera Sans; font-size:7.650000;">+</tspan></text>
			</g>
			<g>
				<text transform="matrix(1 0 0 1 113.1763 9)"><tspan x="0" y="0" style="font-family:Bitstream Vera Sans; font-size:7.650000;">+</tspan></text>
			</g>
		</g>
		<g>
			<rect x="0.5" y="89.25" style="fill:#DCDCDC;stroke:#000000;" width="119" height="7.5"/> 
			<g>
				<text transform="matrix(1 0 0 1 3.125 95.5)"><tspan x="0" y="0" style="font-family:Bitstream Vera Sans; font-size:7.650000;">&#x2013;</tspan></text>
			</g>
			<g>
				<text transform="matrix(1 0 0 1 11.6289 95.5)"><tspan x="0" y="0" style="font-family:Bitstream Vera Sans; font-size:7.650000;">&#x2013;</tspan></text>
			</g>
			<g>
				<text transform="matrix(1 0 0 1 20.1328 95.5)"><tspan x="0" y="0" style="font-family:Bitstream Vera Sans; font-size:7.650000;">&#x2013;</tspan></text>
			</g>
			<g>
				<text transform="matrix(1 0 0 1 28.6367 95.5)"><tspan x="0" y="0" style="font-family:Bitstream Vera Sans; font-size:7.650000;">&#x2013;</tspan></text>
			</g>
			<g>
				<text transform="matrix(1 0 0 1 37.1406 95.5)"><tspan x="0" y="0" style="font-family:Bitstream Vera Sans; font-size:7.650000;">&#x2013;</tspan></text>
			</g>
			<g>
				<text transform="matrix(1 0 0 1 45.6445 95.5)"><tspan x="0" y="0" style="font-family:Bitstream Vera Sans; font-size:7.650000;">&#x2013;</tspan></text>
			</g>
			<g>
				<text transform="matrix(1 0 0 1 54.1484 95.5)"><tspan x="0" y="0" style="font-family:Bitstream Vera Sans; font-size:7.650000;">&#x2013;</tspan></text>
			</g>
			<g>
				<text transform="matrix(1 0 0 1 62.6528 95.5)"><tspan x="0" y="0" style="font-family:Bitstream Vera Sans; font-size:7.650000;">&#x2013;</tspan></text>
			</g>
			<g>
				<text transform="matrix(1 0 0 1 71.1562 95.5)"><tspan x="0" y="0" style="font-family:Bitstream Vera Sans; font-size:7.650000;">&#x2013;</tspan></text>
			</g>
			<g>
				<text transform="matrix(1 0 0 1 79.6602 95.5)"><tspan x="0" y="0" style="font-family:Bitstream Vera Sans; font-size:7.650000;">&#x2013;</tspan></text>
			</g>
			<g>
				<text transform="matrix(1 0 0 1 88.1646 95.5)"><tspan x="0" y="0" style="font-family:Bitstream Vera Sans; font-size:7.650000;">&#x2013;</tspan></text>
			</g>
			<g>
				<text transform="matrix(1 0 0 1 96.6685 95.5)"><tspan x="0" y="0" style="font-family:Bitstream Vera Sans; font-size:7.650000;">&#x2013;</tspan></text>
			</g>
			<g>
				<text transform="matrix(1 0 0 1 105.1724 95.5)"><tspan x="0" y="0" style="font-family:Bitstream Vera Sans; font-size:7.650000;">&#x2013;</tspan></text>
			</g>
			<g>
				<text transform="matrix(1 0 0 1 113.6763 95.5)"><tspan x="0" y="0" style="font-family:Bitstream Vera Sans; font-size:7.650000;">&#x2013;</tspan></text>
			</g>
		</g>
		<circle cx="67.125" cy="41.525" r="2.475"/> 
	</g>
</svg>
